<?xml version="1.0" encoding="UTF-8" standalone="no" ?>
<!DOCTYPE svg PUBLIC "-//W3C//DTD SVG 1.1//EN" "http://www.w3.org/Graphics/SVG/1.1/DTD/svg11.dtd">
<svg xmlns="http://www.w3.org/2000/svg" xmlns:xlink="http://www.w3.org/1999/xlink" version="1.1" width="2000" height="2000" viewBox="0 0 2000 2000" xml:space="preserve">
<desc>Created with Fabric.js 5.2.4</desc>
<defs>
</defs>
<rect x="0" y="0" width="100%" height="100%" fill="transparent"></rect>
<g transform="matrix(1 0 0 1 1000 1000)" id="bf6e02fb-7e2b-4c11-b448-453fed313b18"  >
<rect style="stroke: none; stroke-width: 1; stroke-dasharray: none; stroke-linecap: butt; stroke-dashoffset: 0; stroke-linejoin: miter; stroke-miterlimit: 4; fill: rgb(255,255,255); fill-rule: nonzero; opacity: 1; visibility: hidden;" vector-effect="non-scaling-stroke"  x="-1000" y="-1000" rx="0" ry="0" width="2000" height="2000" />
</g>
<g transform="matrix(Infinity NaN NaN Infinity 0 0)" id="3f20a36b-5705-4191-bc57-d7c5956f604b"  >
</g>
<g transform="matrix(24.71 0 0 24.71 1086.51 899.86)"  >
<path style="stroke: none; stroke-width: 0; stroke-dasharray: none; stroke-linecap: butt; stroke-dashoffset: 0; stroke-linejoin: miter; stroke-miterlimit: 4; fill: rgb(0,0,0); fill-rule: nonzero; opacity: 1;" vector-effect="non-scaling-stroke"  transform=" translate(-32, -32)" d="M 44.18 9 L 38 9 L 38 7 C 38 6.447715250169207 37.5522847498308 6 37 6 L 36 6 C 36 3.790861000676826 34.20913899932317 2 32 2 C 29.790861000676827 2 28 3.7908610006768257 28 5.999999999999999 L 27 6 C 26.447715250169207 6 26 6.447715250169207 26 7 L 26 9 L 19.82 9 C 12.724350590474113 8.991438158240996 6.096748854990729 12.539927472706605 2.1699999999999946 18.450000000000014 C 1.9285210497267153 18.818744166653005 1.9569543470865234 19.302110221769745 2.24 19.64 C 2.428111793431429 19.86586545666032 2.706069483396766 19.99752962559127 3 20 C 3.141494872286836 19.999344618198045 3.2812398028213514 19.96866890173925 3.4100000000000006 19.91 C 9.216890500177652 17.335454198661857 15.49797274381205 16.003619514680814 21.850000000000012 16.000000000000004 L 26 16 L 26 17 C 26 17.552284749830793 26.447715250169207 18 27 18 L 28 18 L 28 61 C 28 61.5522847498308 28.447715250169207 62 29 62 L 35 62 C 35.5522847498308 62 36 61.5522847498308 36 61 L 36 18 L 37 18 C 37.5522847498308 18 38 17.552284749830793 38 17 L 38 16 L 42.15 16 C 48.502027256187965 16.003619514680807 54.783109499822324 17.33545419866184 60.589999999999975 19.909999999999982 C 60.71876019717865 19.96866890173925 60.858505127713165 19.999344618198045 61 20 C 61.29393051660323 19.99752962559127 61.571888206568566 19.86586545666032 61.76 19.64 C 62.04304565291348 19.302110221769745 62.07147895027328 18.818744166653005 61.83 18.45 C 57.90325114500926 12.539927472706594 51.275649409525876 8.991438158240989 44.17999999999999 9.000000000000002 Z M 21.85 14 C 18.540925129743506 13.991917932856493 15.239933943803456 14.32704394158138 11.999999999999972 15.000000000000014 C 10.034351365212133 15.429313275090184 8.097284228292285 15.980375477834613 6.199999999999951 16.650000000000006 C 9.805758775412926 13.027032428038439 14.708508593923266 10.993219177334812 19.820000000000004 10.999999999999996 L 26 11 L 26 14 Z M 32 4 C 33.10456949966159 4 34 4.895430500338413 34 6 L 30 6 C 30 4.8954305003384135 30.895430500338414 4 32 4 Z M 34 60 L 30 60 L 30 18 L 34 18 Z M 36 16 L 28 16 L 28 8 L 36 8 Z M 52 15 C 48.76333768821729 14.327731505236281 45.465733386771056 13.99260911687793 42.159999999999954 14.000000000000007 L 38 14 L 38 11 L 44.18 11 C 49.29149140607674 10.993219177334813 54.19424122458706 13.027032428038435 57.79999999999999 16.649999999999988 C 55.902715771707676 15.980375477834613 53.96564863478786 15.429313275090188 52.000000000000014 15.000000000000007 Z" stroke-linecap="round" />
</g>
</svg>